<svg xmlns="http://www.w3.org/2000/svg" width="1200" height="900" viewBox="0 0 1200 900">
  <defs>
    <linearGradient id="bg" x1="0" y1="0" x2="1" y2="1">
      <stop offset="0" stop-color="#0b1226"/>
      <stop offset="1" stop-color="#020617"/>
    </linearGradient>
    <radialGradient id="glow" cx="35%" cy="40%" r="70%">
      <stop offset="0" stop-color="#f472b6" stop-opacity="0.14"/>
      <stop offset="0.45" stop-color="#22c55e" stop-opacity="0.18"/>
      <stop offset="1" stop-color="#000" stop-opacity="0"/>
    </radialGradient>
    <linearGradient id="shirt" x1="0" y1="0" x2="0" y2="1">
      <stop offset="0" stop-color="#0b1226"/>
      <stop offset="1" stop-color="#040815"/>
    </linearGradient>
    <filter id="shadow" x="-20%" y="-20%" width="140%" height="140%">
      <feDropShadow dx="0" dy="24" stdDeviation="24" flood-color="#000" flood-opacity="0.55"/>
    </filter>
  </defs>

  <rect width="1200" height="900" fill="url(#bg)"/>
  <rect width="1200" height="900" fill="url(#glow)"/>
  <rect x="90" y="90" width="1020" height="720" rx="44" fill="#0b1226" fill-opacity="0.55" stroke="#f472b6" stroke-opacity="0.18"/>

  <g filter="url(#shadow)">
    <path d="M410 250
             C420 220 450 200 480 190
             L520 170
             C545 210 570 225 600 225
             C630 225 655 210 680 170
             L720 190
             C750 200 780 220 790 250
             L845 360
             L770 400
             L740 330
             L740 740
             C740 770 715 795 685 795
             L515 795
             C485 795 460 770 460 740
             L460 330
             L430 400
             L355 360 Z"
          fill="url(#shirt)" stroke="#94a3b8" stroke-opacity="0.22" stroke-width="3"/>

    <!-- Sleeve patch -->
    <g transform="translate(770 385)">
      <rect x="-28" y="-18" width="112" height="72" rx="16" fill="#0f172a" stroke="#4ade80" stroke-opacity="0.65" stroke-width="3"/>
      <path d="M0 18 H56" stroke="#22c55e" stroke-width="6" stroke-linecap="round"/>
      <circle cx="86" cy="18" r="10" fill="#4ade80"/>
    </g>
  </g>

  <g font-family="system-ui, -apple-system, Segoe UI, sans-serif" fill="#e5e7eb">
    <text x="150" y="175" font-size="34" font-weight="700">Патч на рукаве</text>
    <text x="150" y="218" font-size="20" fill="#9ca3af">Рукав • Термотрансфер</text>
  </g>
</svg>