<svg xmlns="http://www.w3.org/2000/svg" width="1200" height="800" viewBox="0 0 1200 800">
  <defs>
    <linearGradient id="bg" x1="0" y1="0" x2="1" y2="1">
      <stop offset="0" stop-color="#0b1226"/>
      <stop offset="1" stop-color="#020617"/>
    </linearGradient>
    <radialGradient id="glow" cx="58%" cy="35%" r="75%">
      <stop offset="0" stop-color="#f472b6" stop-opacity="0.14"/>
      <stop offset="0.45" stop-color="#22c55e" stop-opacity="0.14"/>
      <stop offset="1" stop-color="#000" stop-opacity="0"/>
    </radialGradient>
    <linearGradient id="shirt" x1="0" y1="0" x2="0" y2="1">
      <stop offset="0" stop-color="#f8fafc"/>
      <stop offset="1" stop-color="#e2e8f0"/>
    </linearGradient>
  </defs>

  <rect width="1200" height="800" fill="url(#bg)"/>
  <rect width="1200" height="800" fill="url(#glow)"/>

  <g transform="translate(0 10)">
    <path d="M410 210
             C420 180 450 160 480 150
             L520 130
             C545 170 570 185 600 185
             C630 185 655 170 680 130
             L720 150
             C750 160 780 180 790 210
             L845 320
             L770 360
             L740 290
             L740 700
             C740 730 715 755 685 755
             L515 755
             C485 755 460 730 460 700
             L460 290
             L430 360
             L355 320 Z"
          fill="url(#shirt)" stroke="#0f172a" stroke-opacity="0.15" stroke-width="3"/>

    <!-- Embroidery patch -->
    <g transform="translate(535 330)">
      <path d="M35 0 H175 Q210 0 210 35 V155 Q210 190 175 190 H35 Q0 190 0 155 V35 Q0 0 35 0 Z"
            fill="#0f172a" fill-opacity="0.92" stroke="#4ade80" stroke-opacity="0.55" stroke-width="4"/>
      <path d="M26 40 C60 10 115 10 150 40" fill="none" stroke="#f472b6" stroke-opacity="0.85" stroke-width="8" stroke-linecap="round"/>
      <path d="M26 80 C60 50 115 50 150 80" fill="none" stroke="#60a5fa" stroke-opacity="0.8" stroke-width="8" stroke-linecap="round"/>
      <path d="M26 120 C60 90 115 90 150 120" fill="none" stroke="#22c55e" stroke-opacity="0.8" stroke-width="8" stroke-linecap="round"/>
      <text x="105" y="168" text-anchor="middle" font-family="system-ui, -apple-system, Segoe UI, sans-serif" font-size="20" font-weight="900" fill="#e5e7eb">PATCH</text>
    </g>
  </g>
</svg>